<?xml version="1.0" encoding="UTF-8" standalone="no"?>
<!-- Created with Inkscape (http://www.inkscape.org/) -->

<svg
   xmlns:dc="http://purl.org/dc/elements/1.1/"
   xmlns:cc="http://creativecommons.org/ns#"
   xmlns:rdf="http://www.w3.org/1999/02/22-rdf-syntax-ns#"
   xmlns:svg="http://www.w3.org/2000/svg"
   xmlns="http://www.w3.org/2000/svg"
   xmlns:sodipodi="http://sodipodi.sourceforge.net/DTD/sodipodi-0.dtd"
   xmlns:inkscape="http://www.inkscape.org/namespaces/inkscape"
   viewBox="0 0 264.58333 158.75"
   version="1.1"
   id="svg4537"
   inkscape:version="0.92.4 (5da689c313, 2019-01-14)"
   sodipodi:docname="Doe Flag.svg"
   inkscape:export-filename="C:\Users\verge\Desktop\Doe Flag.png"
   inkscape:export-xdpi="96"
   inkscape:export-ydpi="96">
  <defs
     id="defs4531" />
  <sodipodi:namedview
     id="base"
     pagecolor="#ffffff"
     bordercolor="#666666"
     borderopacity="1.0"
     inkscape:pageopacity="0.0"
     inkscape:pageshadow="2"
     inkscape:zoom="0.49497475"
     inkscape:cx="779.65302"
     inkscape:cy="809.9171"
     inkscape:document-units="px"
     inkscape:current-layer="layer1"
     showgrid="false"
     showborder="true"
     inkscape:window-width="1396"
     inkscape:window-height="1048"
     inkscape:window-x="515"
     inkscape:window-y="0"
     inkscape:window-maximized="1"
     units="px" />
  <metadata
     id="metadata4534">
    <rdf:RDF>
      <cc:Work
         rdf:about="">
        <dc:format>image/svg+xml</dc:format>
        <dc:type
           rdf:resource="http://purl.org/dc/dcmitype/StillImage" />
        <dc:title></dc:title>
      </cc:Work>
    </rdf:RDF>
  </metadata>
  <g
     inkscape:label="Layer 1"
     inkscape:groupmode="layer"
     id="layer1"
     transform="translate(0,-138.25)">
    <rect
       style="fill:#7300b7;fill-opacity:1;stroke-width:0.26458332"
       id="rect4539"
       width="264.58334"
       height="158.75"
       x="-5.9195963e-06"
       y="138.25" />
    <circle
       style="fill:#ffd96c;fill-opacity:1;stroke-width:0.26458332"
       id="path5084"
       cx="132.29167"
       cy="217.625"
       r="79.375" />
    <g
       id="layer1-2"
       inkscape:label="Layer 1"
       transform="matrix(0.63819337,0,0,0.63819337,65.727825,114.32506)"
       style="fill:#ff5293;fill-opacity:1">
      <path
         sodipodi:nodetypes="cscccsccscccccscccccccssccsccccsscsscscssccccssssscsccssscsssscsscccsccccsccscssccscccsssccscccccccc"
         inkscape:connector-curvature="0"
         id="path21"
         d="m 187.49201,245.25506 c -1.06426,-1.21267 -2.49445,-3.31618 -3.17819,-4.67447 -0.68374,-1.35829 -1.95351,-3.42204 -2.82172,-4.58611 -0.86822,-1.16408 -1.85968,-2.98962 -2.20324,-4.05678 -0.34357,-1.06715 -0.72993,-2.09903 -0.85858,-2.29305 -0.12865,-0.19403 -0.6109,-1.29413 -1.07167,-2.44467 -1.15805,-2.89164 -3.79115,-7.59295 -7.52206,-13.43033 -5.96297,-9.3297 -8.63058,-12.0131 -16.95603,-17.05649 -1.32952,-0.80539 -2.47988,-1.46435 -2.55637,-1.46435 -0.24765,0 -5.21564,-3.60369 -6.65041,-4.82409 -0.8661,-0.73668 -2.33485,-1.46506 -3.88056,-1.92442 -1.36786,-0.4065 -3.09734,-1.04964 -3.84328,-1.42919 l -1.35626,-0.6901 0.24218,1.17071 c 0.40741,1.96952 3.47444,8.0841 6.11384,12.18886 1.37651,2.14073 2.78671,4.58552 3.13379,5.43287 0.82983,2.02598 0.79453,5.87961 -0.0917,10.00731 -0.50926,2.37197 -0.68072,4.55799 -0.67792,8.64305 0.003,4.81423 0.10551,5.78141 0.85486,8.08867 0.62453,1.92291 1.206,2.965 2.18402,3.91414 1.57002,1.52365 2.20449,3.71632 1.84956,6.39189 -0.27982,2.10943 -1.12063,3.30779 -2.10225,2.99624 -0.37802,-0.11998 -1.23361,-1.05296 -1.90132,-2.07329 -0.66771,-1.02033 -2.43149,-3.45747 -3.91951,-5.41587 -1.48802,-1.9584 -2.92387,-4.1809 -3.19078,-4.93889 -0.36397,-1.03364 -0.48757,-3.71519 -0.49441,-10.72678 -0.0104,-10.6205 -0.17313,-11.50304 -3.16851,-17.18025 -3.40225,-6.44837 -5.51899,-8.8685 -13.22421,-15.11966 -6.35212,-5.15342 -9.89221,-8.78597 -11.25024,-11.54408 -0.59402,-1.20643 -1.63525,-4.01913 -2.31384,-6.25045 -0.6786,-2.23132 -1.6504,-4.66503 -2.15958,-5.40824 -1.20199,-1.75448 -4.10641,-3.62441 -10.210384,-6.57366 -5.086889,-2.45783 -6.841189,-3.16059 -18.438189,-7.38626 -13.89235,-5.06204 -31.99797,-15.37243 -44.00348,-25.05812 -2.27147,-1.83256 -8.234132,-6.34708 -8.750752,-6.34708 -0.35308,0 1.500852,11.92016 1.884792,14.61363 0.46839,3.28593 2.20181,6.42467 2.20181,6.42467 1.497285,-0.66546 2.948291,1.92354 3.59242,4.3154 0.636689,2.36424 1.21288,3.45404 -0.26798,4.88934 -0.63982,0.62015 -1.29953,1.12754 -1.466,1.12754 -1.34794,0 -6.65398,-6.28555 -9.33396,-11.05703 -1.36964,-2.43853 -2.57809,-10.08958 -3.24051,-20.51658 -0.35481,-5.58517 -0.3366,-6.50961 0.15119,-7.67516 1.11268,-2.65868 3.50381,-2.61747 7.78755,0.1342 1.57043,1.00878 5.39447,3.25308 8.49786,4.98733 3.10339,1.73424 7.04286,4.08984 8.75437,5.23465 1.71151,1.14481 3.15752,2.08148 3.21334,2.08148 0.0558,0 -0.356014,-2.05431 -0.222244,-4.33413 0.13377,-2.27983 0.976244,-4.59115 1.179214,-5.36726 0.20297,-0.77611 2.24658,-4.98299 4.54136,-9.34861 6.37066,-12.119656 7.85255,-16.212527 8.49395,-23.459725 0.18889,-2.134306 0.4398,-4.952892 0.55757,-6.263524 0.21335,-2.374326 0.20966,-2.387182 -1.01789,-3.544907 -0.69906,-0.659299 -2.66536,-1.751478 -4.54544,-2.524757 -5.36451,-2.206436 -7.72315,-4.1517 -7.72315,-6.369609 0,-0.62983 -0.39687,-2.199545 -0.88194,-3.488256 -0.48507,-1.288711 -0.88195,-2.754856 -0.88195,-3.258099 v -0.914989 l 2.475744,0.488096 c 1.295053,0.255321 4.618874,0.679232 7.238244,0.68187 4.06402,0.0041 4.956132,-0.685647 7.182332,-1.404045 2.40548,-0.776253 2.251601,-1.890742 7.838665,-1.571286 4.724592,0.270141 6.205486,2.939578 7.380808,3.248619 1.128076,-0.683146 2.747875,-1.509746 4.620043,-1.361879 4.560726,0.360212 6.446917,2.517219 8.24647,2.786945 1.311803,0.19662 4.420491,0.486775 5.446574,-0.367592 -1.079784,2.018255 -2.331374,3.095444 -3.412001,3.665457 0,0 1.979049,0.665259 3.076535,2.831652 -1.772631,-2.192483 -5.774818,-1.127228 -7.788952,-0.577219 -1.989009,0.54315 -3.923484,0.502364 -6.176182,-0.01076 l 0.04373,4.725118 c -0.12295,2.23132 -0.46913,5.326945 -0.76929,6.879167 -1.17456,6.074053 -1.5236,9.377365 -1.52832,14.463895 -0.0141,15.244988 2.923343,24.223918 14.792802,33.117698 4.89545,3.66815 8.625181,5.12373 12.186951,6.18238 13.27162,3.43205 18.5392,7.39163 25.80763,13.49137 3.97651,3.33712 4.23466,3.47659 6.43511,3.47659 2.04246,0 8.35227,-2.88127 8.35227,-2.88127 1.15456,-0.65768 2.29879,-1.37728 3.27849,-3.08412 0.51065,-0.88966 0.84251,-2.61067 0.97142,-3.70749 0.14105,-1.20016 -0.0824,-2.89428 0.15281,-2.82647 0.215,0.062 1.59305,2.2548 2.26048,3.82236 3.03398,10.27803 -3.28197,12.84556 -5.91974,13.54658 -3.64808,0.96952 -8.00462,1.13446 -8.00462,1.13446 0,0 2.84765,3.37782 3.95919,5.98953 2.54429,5.29997 3.33038,8.64659 5.38717,13.9898 1.71234,4.32637 3.38041,6.79924 6.74725,10.00265 4.19989,3.99603 9.407,8.11119 10.26348,8.11119 0.84469,0 2.10103,2.13369 4.84154,8.22252 2.61993,5.82094 4.58897,9.76486 8.22372,16.47193 4.2372,7.81872 8.89854,16.98986 8.90604,17.52251 0.003,0.22704 0.7283,1.10016 1.61135,1.94028 2.91644,2.77465 3.72169,4.23654 3.91118,7.10049 0.10074,1.52258 -0.51964,3.53372 -0.78696,4.02593 0,0 -0.99867,-0.7018 -1.23311,-1.05281 l -1.34042,-1.8632 0.90485,2.32447 0.69463,0.97483 c -0.83657,0.0281 -2.10709,-0.96152 -3.13513,-2.13292 z"
         style="fill:#ff5293;fill-opacity:1;stroke-width:0.35277778" />
    </g>
  </g>
</svg>
