<?xml version="1.0" encoding="utf-8"?>
<svg xmlns="http://www.w3.org/2000/svg" viewBox="0 0 625 400">
  <path fill="#A60061" d="M0 0h625v57.143H0z"/>
  <path fill="#B95393" d="M0 57.143h625v57.144H0z"/>
  <path fill="#D260A7" d="M0 114.286h625v57.143H0z"/>
  <path fill="#EDEDEB" d="M0 171.429h625v57.144H0z"/>
  <path fill="#E5ABD0" d="M0 228.572h625v57.143H0z"/>
  <path fill="#C74D52" d="M0 285.715h625v57.143H0z"/>
  <path fill="#8C1D00" d="M0 342.857h625V400H0z"/>
  <path fill="#FFF" d="M115.237 29.845l-.057-.055c.314 1.93-.469 2.473-2.984 2.292l-2.101 2.405c.978-.233 1.62-.829 2.372-1.041.607-.172 1.495-.084 1.977.271.338.249.332 1.161.247 1.743-.144.98-.515 1.782-1.637 2.218-.981.381-1.757 1.257-2.685 1.812-1.802 1.079-3.507 1.703-5.201-.191-.629-.703-1.41-1.35-2.25-1.766-1.988-.983-4.054-1.813-6.154-2.735-.568.823-1.012 1.074-2.09.434-1.188-.706-2.754-.872-4.184-1.04-1.189-.14-2.418.107-3.629.087-.561-.009-1.254-.082-1.648-.411-.846-.705-1.535-1.595-2.422-2.554-.602.899-.834 1.537-1.289 1.853-.602.417-1.493.964-2.062.794-2.939-.875-5.801-.806-8.71.073-.825.249-1.766.1-2.603.322-1.561.414-3.055 1.233-4.629 1.403-2.784.301-5.023 1.421-6.914 3.422-.519.549-1.169.976-1.764 1.452-1.899 1.52-3.677 3.024-4 5.756-.143 1.204-.875 2.666-1.818 3.366-1.237.919-1.153 1.693-.866 2.911.152.645-.049 1.537-.416 2.11-1.032 1.61-1.797 3.464-3.567 4.498-.091.053-.236.188-.219.228.604 1.459.126 2.571-.857 3.743-.645.768-.854 1.901-1.258 2.87-.03.483.645.876.924 1.458.329.685.314 1.534.448 2.312-.618.095-1.234.198-1.853.284-.917.127-1.837.242-2.94.385.8 1.462 1.135 2.74-.057 3.293-1.189.552-1.024 1.157-.838 2.072.088.434.075 1.059-.177 1.358-.852 1.013-1.83 1.919-2.786 2.892 2.104.929 2.231 1.249 1.305 3.956-.242.708-.613 1.696-1.161 1.892-.651.232-1.557-.253-2.579-.477-.438 1.287-.806 2.63-1.348 3.899-.816 1.913-.656 2.414 1.371 2.919.992.248 1.569.693 1.579 1.779.01 1.086.123 2.171.132 3.258.003.392-.125 1.106-.259 1.122-.497.06-1.214.067-1.493-.235-.458-.495-.643-1.245-.935-1.891-.411-.908-.814-1.818-1.167-2.607l-1.639.797c.764 2.129 1.533 4.182 2.216 6.264.114.347-.022 1.047-.262 1.176-.358.193-1.028.198-1.361-.024-1.116-.743-2.142-1.623-3.048-2.331.258 1.29.604 2.866.881 4.455.17.976-.351 1.449-1.308 1.473-.438.011-.877.002-.925.002l-.382 2.275c.473.298 1.035.759 1.677 1.033 1.227.522 1.051 1.255.411 2.08-.298.384-.631.795-1.042 1.031-1.997 1.142-2.01 3.359-2.572 5.143-.437 1.385.059 3.065.144 4.689-1.926.008-2.516.817-2.435 2.409.048.941-.124 1.869-1.375 2.348-1.192.456-1.089 1.592.137 2.117 1.039.444 1.058 1.144.84 2.019-.158.633-.275 1.283-.509 1.887-.297.767-.694 1.496-1.128 2.408v2.557c1.204.215 2.33.537 3.469.595 2.599.132 3.224-.487 3.767-3.053.084-.396.83-.869 1.298-.902.466-.033.979.423 1.452.699.845.492 4.003.386 4.719-.199.163-.132.275-.341.375-.533.797-1.516 1.426-1.556 2.541-.213.48.578.981 1.175 1.585 1.605 1.431 1.019 2.945 1.919 4.396 2.912.984.673 1.906 1.016 3.191.689 1.128-.287 2.417-.207 3.589-.01 3.808.637 7.229-.601 10.662-1.934.513-.199 1.418-.36 1.648-.101.399.45.479 1.234.557 1.895.032.274-.287.59-.568 1.113.531-.072.782-.099 1.03-.142 2.802-.479 5.593-1.043 8.41-1.404 1.373-.176 2.406 1.12 1.688 1.99-.511.621-1.663 1.008-2.517.989-1.624-.036-2.134.274-2.449 1.856-.158.797-.671 1.525-1.037 2.278a6.211 6.211 0 0 1-.52.921c-.663.924-1.359 1.824-2.018 2.751-.219.308-.429.651-.533 1.01-.498 1.724-.73 3.57-1.503 5.154-.611 1.253-1.578 2.952-3.222 2.641-.868-.164-1.794-1.62-2.119-2.671-.452-1.462-1.371-1.504-2.595-1.696.248.932.72 1.739.556 2.385-.137.542-1.026.884-1.558 1.342-.152.131-.28.348-.32.545-.442 2.192-1.071 4.375-1.223 6.588-.105 1.545-.397 2.104-2.138 1.247v4.847c1.781-.543 3.25-.84 4.329.844.184.287.76.34 1.166.462.973.292 2.024.421 2.911.875 1.104.566 1.923.592 3.016-.138.732-.489 1.867-.543 2.791-.458.236.022.353 1.31.536 2.013.024.094.123.168.109.151.729-.162 1.454-.195 2.055-.486.992-.479 2.69-.312 2.301-2.309-.045-.229.923-.656 1.421-.991.247.484.602.947.707 1.46.081.397-.341.934-.204 1.274.278.691.65 1.491 1.229 1.875.673.447 1.619.466 2.429.723 1.637.521 2.641.01 3.442-1.555.252-.493.895-.98 1.436-1.091 1.234-.253 2.539-.161 3.775-.41 2.107-.423 3.201.32 3.539 2.415.182 1.125.378 2.39 1.018 3.26.629.853 2.02 1.969 2.74 1.768 1.91-.534 2.935-.367 2.994 1.835 1.228-.559 2.377-.927 3.348-1.566 1.121-.739 1.732-.63 2.209.694.083.232.221.494.412.632 1.246.898 2.498 1.795 3.79 2.625.265.172.78.195 1.063.055 1.756-.877 3.255-.059 4.695.73 1.922 1.053 2.004 1.088 3.067-.783.554-.975 1.427-1.006 2.064-.074 1.357 1.984 4.205 2.537 6.255 1.32.611-.363 1.719-.799 2.068-.525 1.121.883 2.366.654 3.561.807 2.148.273 4.318 1.135 6.44-.272.319-.213 1.294-.029 1.491.277.561.865 1.246.998 2.102.768.832-.227 1.823-.312 2.426-.832 1.145-.982 2.471-.98 3.538-.514 1.866.816 3.37-.123 4.61-.914 2.034-1.297 3.439-1.281 4.614.689 1.005.113 1.925.295 2.845.287.476-.004 1.011-.256 1.411-.545 1.079-.781 2.067-1.689 3.15-2.463 2.663-1.904 5.741-.361 8.614-.92 1.99-.388 3.521-.863 4.424-2.854.271-.597.774-1.219 1.337-1.53 2.278-1.26 4.649-2.354 6.928-3.613.896-.495 1.628-1.279 2.452-1.909 1.413-1.079 2.635-2.609 4.805-1.867.287.099.918-.338 1.174-.686 1.341-1.822 2.447-3.736 5.049-4.233 1.701-.324 3.011-1.604 4.053-3.133.969-1.422 1.344-3.608 3.819-3.511.204.008.458-.87.663-1.346.273-.633.365-1.507.84-1.837.33-.229 1.333.107 1.756.496.725.667 1.175.693 1.684-.134.883-1.433 1.738-2.882 2.679-4.276.29-.43.826-.999 1.235-.988 1.461.039 1.581-1.042 2.025-1.97.311-.651.752-1.403 1.34-1.693.308-.151 1.059.596 1.938 1.142.406-1.263.799-2.583 1.257-3.88.325-.921.58-1.933 1.149-2.69 1.039-1.38 2.139-.25 3.348.387.205-.303.422-.562.568-.854 1.128-2.239 2.326-4.43 2.332-7.071.004-1.804 1.221-2.405 2.854-1.625.301.144.921.231 1.02.087.669-.975 1.779-2.048 1.724-3.032-.108-1.936.317-3.239 2.057-3.774-.001-1.259-1.618-2.207-.147-3.282 2.291-1.674 2.344 1.346 3.648 1.821 1.563-.723.937-2.029.871-3.168-.132-2.307.164-3.392 1.619-3.58-.879-1.425-.441-2.201 3.328-2.185-.246-.718-.488-1.337-.668-1.975-.375-1.338-1.216-2.736.663-3.746.286-.154.323-.977.289-1.478-.078-1.107-.394-2.386.876-2.885.746-.293 1.739.042 2.645.095.096-.548.385-1.367.348-2.171-.054-1.154.518-1.754 1.313-2.464 1.061-.945.903-3.043 2.938-3.187.079-.005.046-.836.167-1.253.105-.361.283-.892.553-.983 1.264-.428 1.162-1.218.578-2.047-.864-1.228-.326-2.028.652-2.785.281-.218.538-.48.761-.758.681-.849 1.339-1.716 2.11-2.709-.442-.912.805-4.001 2.115-5.075-.082-1.158-.529-2.33-.127-2.88.757-1.035 2.004-1.71 2.963-2.468-.227-.732-.369-1.197-.438-1.415-.944 0-1.752-.025-2.556.007-.752.031-1.505.204-2.252.17a23.755 23.755 0 0 1-3.096-.371c-.513-.092-1.038-.604-1.478-.517-1.751.345-3.449 1.027-5.207 1.243-1.402.172-2.871-.094-4.297-.274-1.006-.127-1.982-.604-2.98-.633-2.514-.073-5.107-.283-6.967-1.968-1.227-1.112-2.387-1.757-3.936-1.965-.928-.125-1.986-.094-2.738-.546-1.986-1.193-3.852-1.187-6.099-.642-3.232.784-6.622.895-9.925 1.424-2.428.389-4.852.879-7.225 1.522-2.255.61-4.445 1.459-6.651 2.239-.902.319-1.913.555-2.63 1.131-2.416 1.942-4.961 3.638-7.733 5.039-1.106.559-2 1.546-2.979 2.352-.288.238-.517.549-.807.786-1.576 1.29-3.618 2.01-4.67 3.961-.219.408-.879.589-1.35.85-1.088.601-2.318 1.026-3.252 1.808-2.433 2.035-4.781 4.177-7.078 6.366-1.674 1.596-3.252 3.299-4.798 5.021-1.756 1.955-3.335 4.076-5.162 5.96-2.162 2.231-4.656 4.15-6.731 6.452-2.488 2.76-6.028 3.428-9.133 4.852-1.365.626-3.537 1.641-5.256-.079-.111-.111-.502.067-.764.094-1.358.141-2.719.262-4.076.42-.918.107-1.827.287-2.746.39-.923.104-1.853.153-2.779.227-.609.049-1.242.013-1.824.167-.854.226-1.676.857-2.5.838-2.082-.046-4.162-.339-6.237-.571-1.519-.17-2.631-1.298-2.495-2.774.16-1.737.569-3.452.828-4.932-1.769 0-3.732-.034-5.693.034-.321.012-.688.431-.926.743-.646.849-1.115 1.869-1.876 2.586-1.172 1.106-4.229.964-5.523-.028-.271-.208-.733-.354-1.054-.283-3.344.746-6.793 1.101-9.873 2.829-1.461.819-3.152 1.248-4.554 2.143-2.392 1.527-4.769 3.131-6.91 4.982-2.16 1.869-3.799 4.528-7.332 3.353-.475-.158-1.084.09-1.631.151-.657.073-1.374.346-1.956.171-.653-.196-1.372-.694-1.686-1.267-.15-.275.482-1.116.92-1.532.376-.356.974-.488 1.484-.693 3.489-1.402 6.533-3.398 8.389-5.95-.392-1.285-.96-2.843-.866-2.884 1.415-.619 3.252-1.807 4.327-1.338 2.111.919 3.069.028 4.2-1.269 1.182-1.354 1.148-1.81-.254-3.11-2.382 1.694-2.413 1.673-5.012.102-.436-.264-1.066-.401-1.563-.322-.905.143-1.778.492-2.617.74l-.446 1.816c2.413 1.474.062 2.898.061 4.401-2.393.185-3.898-1.361-5.023-2.183-1.52.941-2.651 1.665-3.806 2.348-.699.414-2.028.733-2.051 1.152-.095 1.709-1.336 2.074-2.41 2.517l.197 2.391c-1.958.229-3.208-.806-4.521-1.667-.543-.356-1.295-1.167-1.576-1.025-1.582.796-1.872-.448-2.513-1.3-.377-.501-.944-.86-1.435-1.291.392-1.996.705-2.159 2.635-1.573 1.416.43 2.845.848 4.297 1.106.559.1 1.199-.255 1.803-.402l-.053-.612c-.437-.066-.896-.253-1.308-.18-2.512.447-3.181.096-4.148-2.303-.783-1.943.272-3.253 2.347-3.041 1.423.146 2.961.628 4.103-.838.161-.207.606-.317.894-.278 1.28.172 2.55.416 3.928.651-.613-.722-1.081-1.397-1.672-1.938-.777-.711-.851-1.595-.166-2.146.565-.455 1.638-.752 2.292-.536 1.898.629 2.63 2.384 3.279 4.16a2.87 2.87 0 0 0-.005-1.125c-.417-2.251-.055-2.75 2.15-3.561.794-.292 1.544-.865 2.149-1.474 1.044-1.05 2.084-1.843 3.896-.866-.365-.547-.469-.905-.676-.98-1.567-.57-1.627-1.477-.812-2.774.133-.212-.249-.925-.567-1.208-.812-.721-1.387-3.731-.67-4.495.266-.284.954-.473 1.296-.333 1.583.648 3.198 1.295 4.622 2.221.636.414.771 1.533 1.267 2.238.841 1.195 1.789 2.316 2.704 3.484.012-.023.082-.398.255-.454 1.619-.518 2.858-1.516 3.86-2.86.17-.229.66-.382.652-.553-.074-1.521.916-1.645 1.965-1.432 1.502.305 2.959.548 4.346-.326 1.018-.64 2.018-1.307 3.117-2.021-.021-.471-.053-1.104-.082-1.737l-.492.328c-.701-.707-1.863-1.328-2.014-2.136-.404-2.19-1.559-3.908-2.744-5.661-.217-.32-.438-.649-.578-1.004-.38-.96.129-1.702.983-1.625.855.078 1.878.53 2.44 1.163 1.374 1.542 2.42 3.376 3.789 4.923 1.848 2.086 3.842 4.048 5.838 5.997 1.498 1.462 3.549 2.267 5.449 2.077 2.074-.207 4.053-1.382 6.065-2.132l-.466-1.849.559.188c.352-.672 1.168-1.585.967-1.97-.529-1.019-1.539-1.777-2.275-2.705-.293-.371-.645-1.17-.498-1.324.393-.411 1.031-.762 1.588-.787.546-.024 1.111.382 1.667.6-.108-.667-.407-1.052-.662-1.463-.918-1.481-.438-2.488 1.255-2.657.768-.077 1.535-.157 2.354-.24.018-.071.104-.234.091-.389-.15-1.704.158-2.771 2.335-2.421.681.109 1.981-.346 1.915-1.609-.046-.87-.441-1.72-.505-2.591-.032-.434.205-1.077.54-1.314 1.576-1.118 3.548-.032 3.675 2.07.081 1.333.574 1.875 1.659 1.73 0-2.189-.002-4.246.002-6.303 0-1.08-.051-2.165.034-3.238.077-.969.188-1.971.522-2.869.155-.415.873-.827 1.348-.84.301-.009.711.679.915 1.126.431.944.739 1.944 1.134 2.907.299.729.903 1.423.939 2.154.133 2.621 1.202 4.689 3.314 6.387.339-.676.657-1.358 1.019-2.017.25-.455.56-.877.843-1.313.593.451 1.539.805 1.695 1.375.242.883.02 1.926-.143 2.877-.199 1.173.172 1.806 1.385 1.897.484.036.968.103 1.451.155.036-.155.102-.266.078-.354-.631-2.365-2.111-4.372-1.574-7.2.811-4.28.916-8.695 1.291-13.055.078-.92.254-1.743 1.383-1.628 1.221.124 1.206 1.071 1.117 2.009-.125 1.309-.665 2.787-.24 3.89.652 1.694.126 3.18.076 4.77-.078 2.515.049 5.036.09 7.554l.568-.276 3.423 1.292c-.118-1.223.687-1.496 1.78-1.288-.08-.386-.209-.773-.229-1.166-.047-.982.355-2.3-.135-2.89-1.652-1.986-.295-4.064-.488-6.063-.026-.28.893-.72 1.432-.955.229-.099.614.241.911.21 2.056-.213 2.837.214 3.37 2.184.399 1.477.611 3.004.906 4.509l.641-.082c-.119-.698-.119-1.447-.385-2.084-.479-1.147.064-1.52 1.012-1.356.914.157 1.775.609 2.986 1.05 1.865-.847 2.398-1.63 2.229-3.802-1.715-.125-1.651-1.103-1.191-2.431.441-1.273.852-2.449 2.244-3.028.369-.154.672-.701.813-1.13 1.343-4.058 2.622-8.136 3.987-12.187.172-.511.73-.891 1.111-1.331.515.64 1.489 1.297 1.467 1.918-.109 3.044.002 6.161-1.561 8.98-.179.323-.1 1.084.152 1.302 1.152.991 2.857.861 3.736-.368.805-1.125 1.59-.912 2.548-.379 1.021.567 2.062 1.1 2.677 1.425.412-.79.568-1.629 1.055-1.924 2.01-1.22 4.125-1.936 6.43-.574 1.673.988 3.041.848 3.617-.237 1.039-1.954 1.477-1.998 2.689-.298.775-.957 1.379-2.349 2.385-2.766 1.008-.418 2.42.136 3.687.268.133-.971 1.869-3.079 2.628-2.658.792.439 1.264 1.455 1.876 2.218l-.373.309c1.903.928 1.905 1.257.853 3.1-.886 1.549-2.871 2.06-3.356 4.036-.247 1.004-1.182 1.919-1.994 2.672-.422.391-1.574.666-1.83.415-.452-.443-.793-1.432-.607-2.007.468-1.456 1.254-2.809 1.905-4.188l-1.82.729c.932.907.334 1.396-.416 1.979-.99.771-2.384 1.527-2.686 2.559-.461 1.577-1.553 2.569-2.356 3.819-.185.287-.564.722-.771.679-1.599-.328-3.633.639-4.412-1.221l-4.557.801c-.047 1.002-.084 1.82-.121 2.638l-2.658-.514c-.467.312-1.078.911-1.81 1.166-1.225.427-2.858.261-3.717 1.023-1.282 1.139-2.586.936-3.85.744-1.753-.266-2.481.121-2.631 1.858-.079.907-.337 1.797-.499 2.699-.106.592-.186 1.188-.25 1.606 1.516 0 2.786.044 4.051-.024.439-.024.869-.318 1.293-.51.279-.126.527-.329.814-.43.978-.348 1.992-.605 2.943-1.012 1.192-.511 2.33-1.149 3.502-1.709 2.878-1.375 6.122-2.085 8.217-4.843.768-1.009 1.983-.674 2.365.526.128.399.143.834.266 1.614 3.454-.36 6.838-.675 10.208-1.092.834-.103 1.62-.561 2.44-.813 2.324-.713 4.399-2.09 7.091-1.792 1.717.19 3.579-.383 5.297-.884 2.108-.614 4.082-1.757 6.212-2.224 2.936-.644 4.992-2.264 6.136-4.875 1.212-2.769 3.37-4.203 6.019-5.172 1.896-.694 3.923-1.01 5.177-2.993.81-1.281 2.661-.785 3.291.715 2.003-1.809 4.015-3.6 5.985-5.433.342-.317.604-.791.717-1.239.039-.154-.641-.7-.724-.647-2.062 1.322-2.422-.657-3.099-1.682-.713-1.08-1.749-1.522-2.851-.88-1.136.661-2.079.715-2.931-.583-.47-.716-1.266-1.29-2.03-1.725-1.339-.762-2.797-1.316-4.149-2.059-.953-.523-1.741-1.41-2.734-1.781-1.21-.451-2.65-1.939-3.793.218-.092.175-.473.203-.723.287-1.957.662-3.147-.694-4.555-1.635-1.096-.733-2.313-1.471-3.575-1.733-3.038-.632-6.438.188-8.866-2.653-1.565-1.833-4.398-.766-6.154-2.506-.771-.765-2.02-1.075-3.08-1.519-2.322-.97-4.668-1.881-6.994-2.841-.892-.368-1.756-.804-3.062-1.407-1.582.562-1.543.544-2.5-1.47-.188-.393-.777-.654-1.236-.848-1.176-.496-2.354-1.038-3.586-1.339-1.51-.37-2.836-.451-3.941-2.1-.777-1.158-2.98-1.352-4.539-1.995-1.127-.465-2.24-.963-3.781-1.627a3.363 3.363 0 0 1-4.034-.633c-1.165-1.189-3.506-.028-4.022-2.216-.008-.033-.206-.017-.314-.031-.833-.106-1.672-.176-2.497-.33-2.405-.446-4.776-.763-7.258-.321-1.125.201-2.386-.357-3.584-.582-.411-.077-.856-.339-1.214-.244-.827.22-1.609.607-2.436.937.073.396.289.941.236 1.459-.057.546-.23 1.278-.615 1.526-.281.182-1.005-.24-1.492-.475-.674-.325-1.312-.727-1.641-.913-.09 1.03.131 2.216-.357 2.88-.387.526-1.642.528-2.518.556-2.105.068-3.754-2.497-5.898-1.057l-.117 2.125c-.697-.081-1.397-.253-2.088-.219-.772.038-1.535.262-2.301.406.162.523.25 1.089.512 1.557.229.405.704.665.98 1.052.24.336.583.855.472 1.125-.151.363-.657.651-1.072.821-1.765.725-2.612-.968-3.231-.874l-1.684 1.415c.569-.088 1.701.152 2.758.576.373.151.566.752.842 1.148-.482.318-.95.876-1.449.905-1.146.066-2.309-.125-3.465-.211l-.057.417c.707.142 1.412.391 2.122.406 1.75.035 2.847 1.147 3.812 2.332.675.83.195 1.658-.615 2.261-.867.646-1.338.067-1.688-.592-1.163-2.192-3.197-1.927-4.914-1.364-1.214.398-3.058.31-3.573 2.307.661.341 1.28.65 1.899.958zm20.878 56.732c-.674-.693-1.827-1.401-1.739-1.881.232-1.27-.475-2.047-.854-3.034-.458-1.187-1.12-1.285-2.119-.801.341 1.098.565 2.16 1.004 3.126.365.804 1.089 1.443 1.462 2.245.651 1.403 1.01 1.491 2.246.345zm23.729-7.708l-.41-.735-4.672 1.612c.881.635 1.885 1.304 2.629 1.086.93-.273 1.645-1.275 2.453-1.963zm-38.083 10.092c-.892.602-2.202-.81-2.323 1.207.757-.422 2.003 1.072 2.323-1.207z"/>
  <path fill="#FF326A" d="M115.237 29.845l-1.895-.943c.516-1.997 2.359-1.908 3.573-2.307 1.717-.562 3.751-.828 4.914 1.364.351.66.821 1.239 1.688.592.811-.603 1.29-1.431.615-2.261-.965-1.185-2.062-2.296-3.812-2.332-.71-.015-1.415-.264-2.122-.406l.057-.417c1.156.087 2.318.278 3.465.211.499-.029.967-.587 1.449-.905-.275-.396-.469-.998-.842-1.148-1.057-.424-2.188-.665-2.758-.576l1.684-1.415c.619-.095 1.467 1.598 3.231.874.415-.17.921-.458 1.072-.821.111-.27-.231-.789-.472-1.125-.276-.387-.752-.647-.98-1.052-.262-.468-.35-1.034-.512-1.557.766-.144 1.528-.368 2.301-.406.69-.034 1.391.138 2.088.219l.117-2.125c2.145-1.44 3.793 1.125 5.898 1.057.876-.028 2.131-.03 2.518-.556.488-.664.268-1.85.357-2.88.329.186.967.588 1.641.913.487.235 1.211.657 1.492.475.385-.248.559-.98.615-1.526.053-.518-.163-1.063-.236-1.459.826-.329 1.608-.716 2.436-.937.357-.095.803.167 1.214.244 1.198.224 2.459.782 3.584.582 2.481-.442 4.853-.125 7.258.321.825.153 1.664.223 2.497.33.108.014.307-.002.314.031.517 2.188 2.857 1.026 4.022 2.216a3.363 3.363 0 0 0 4.034.633c1.541.665 2.654 1.162 3.781 1.627 1.559.644 3.762.837 4.539 1.995 1.105 1.649 2.432 1.73 3.941 2.1 1.232.301 2.41.844 3.586 1.339.459.193 1.049.455 1.236.848.957 2.014.918 2.032 2.5 1.47 1.307.603 2.171 1.039 3.062 1.407 2.326.96 4.672 1.871 6.994 2.841 1.061.444 2.309.754 3.08 1.519 1.756 1.741 4.589.673 6.154 2.506 2.428 2.842 5.828 2.021 8.866 2.653 1.262.263 2.479 1 3.575 1.733 1.407.941 2.598 2.297 4.555 1.635.25-.084.631-.112.723-.287 1.143-2.157 2.583-.668 3.793-.218.993.371 1.781 1.257 2.734 1.781 1.353.743 2.811 1.296 4.149 2.059.765.437 1.561 1.009 2.03 1.725.852 1.298 1.795 1.244 2.931.583 1.102-.642 2.138-.199 2.851.88.677 1.025 1.037 3.004 3.099 1.682.083-.053.763.493.724.647a2.639 2.639 0 0 1-.717 1.239c-1.971 1.833-3.982 3.624-5.985 5.433-.63-1.5-2.481-1.996-3.291-.715-1.254 1.983-3.28 2.298-5.177 2.993-2.648.97-4.807 2.403-6.019 5.172-1.144 2.611-3.2 4.23-6.136 4.875-2.13.467-4.104 1.609-6.212 2.224-1.718.5-3.58 1.074-5.297.884-2.691-.299-4.767 1.078-7.091 1.792-.82.252-1.606.71-2.44.813-3.37.417-6.754.731-10.208 1.092-.123-.78-.138-1.215-.266-1.614-.382-1.2-1.598-1.535-2.365-.526-2.095 2.758-5.339 3.468-8.217 4.843-1.172.561-2.31 1.199-3.502 1.709-.951.407-1.966.664-2.943 1.012-.287.102-.535.304-.814.43-.424.191-.854.486-1.293.51-1.265.069-2.535.024-4.051.024.064-.418.144-1.015.25-1.606.162-.901.42-1.792.499-2.699.149-1.738.878-2.124 2.631-1.858 1.264.191 2.567.395 3.85-.744.858-.763 2.492-.596 3.717-1.023.731-.255 1.343-.854 1.81-1.166l2.658.514c.037-.818.074-1.636.121-2.638l4.557-.801c.779 1.86 2.813.893 4.412 1.221.206.042.586-.392.771-.679.804-1.25 1.896-2.242 2.356-3.819.302-1.032 1.695-1.789 2.686-2.559.75-.584 1.348-1.072.416-1.979l1.82-.729c-.651 1.378-1.438 2.732-1.905 4.188-.186.576.155 1.564.607 2.007.256.25 1.408-.024 1.83-.415.812-.752 1.747-1.667 1.994-2.672.485-1.976 2.471-2.487 3.356-4.036 1.053-1.843 1.051-2.172-.853-3.1l.373-.309c-.612-.763-1.084-1.779-1.876-2.218-.759-.421-2.495 1.687-2.628 2.658-1.267-.132-2.679-.686-3.687-.268-1.006.417-1.609 1.809-2.385 2.766-1.213-1.7-1.65-1.656-2.689.298-.576 1.084-1.944 1.225-3.617.237-2.305-1.362-4.42-.646-6.43.574-.486.295-.643 1.135-1.055 1.924-.615-.326-1.656-.858-2.677-1.425-.958-.532-1.743-.746-2.548.379-.879 1.229-2.584 1.358-3.736.368-.252-.218-.331-.979-.152-1.302 1.562-2.819 1.451-5.936 1.561-8.98.022-.621-.952-1.278-1.467-1.918-.381.44-.939.82-1.111 1.331-1.365 4.05-2.645 8.129-3.987 12.187-.142.43-.444.977-.813 1.13-1.393.579-1.803 1.755-2.244 3.028-.46 1.328-.523 2.305 1.191 2.431.17 2.171-.363 2.955-2.229 3.802-1.211-.441-2.072-.893-2.986-1.05-.947-.164-1.49.208-1.012 1.356.266.638.266 1.386.385 2.084l-.641.082c-.295-1.505-.507-3.033-.906-4.509-.533-1.97-1.314-2.396-3.37-2.184-.297.031-.683-.31-.911-.21-.539.235-1.458.674-1.432.955.193 2-1.164 4.078.488 6.063.49.59.088 1.907.135 2.89.02.393.148.78.229 1.166-1.094-.208-1.898.065-1.78 1.288l-3.423-1.292-.568.276c-.041-2.519-.168-5.039-.09-7.554.05-1.59.576-3.076-.076-4.77-.425-1.103.115-2.582.24-3.89.089-.938.104-1.885-1.117-2.009-1.129-.115-1.305.708-1.383 1.628-.375 4.36-.48 8.775-1.291 13.055-.537 2.829.943 4.835 1.574 7.2.023.088-.042.2-.078.354-.483-.052-.967-.119-1.451-.155-1.213-.091-1.584-.724-1.385-1.897.162-.952.385-1.995.143-2.877-.156-.57-1.103-.924-1.695-1.375-.283.437-.593.858-.843 1.313-.361.659-.68 1.341-1.019 2.017-2.112-1.698-3.182-3.767-3.314-6.387-.036-.73-.641-1.425-.939-2.154-.395-.962-.703-1.962-1.134-2.907-.204-.448-.614-1.135-.915-1.126-.475.014-1.192.425-1.348.84-.334.898-.445 1.9-.522 2.869-.085 1.073-.034 2.158-.034 3.238-.004 2.057-.002 4.113-.002 6.303-1.085.145-1.578-.397-1.659-1.73-.127-2.103-2.099-3.188-3.675-2.07-.335.238-.572.881-.54 1.314.063.871.459 1.721.505 2.591.066 1.264-1.234 1.718-1.915 1.609-2.177-.35-2.485.717-2.335 2.421.014.155-.073.318-.091.389-.819.083-1.587.163-2.354.24-1.692.169-2.173 1.176-1.255 2.657.255.412.554.796.662 1.463-.556-.217-1.121-.624-1.667-.6-.557.025-1.195.376-1.588.787-.146.154.205.954.498 1.324.736.927 1.746 1.687 2.275 2.705.201.384-.615 1.298-.967 1.97l-.559-.188.466 1.849c-2.013.75-3.991 1.925-6.065 2.132-1.9.19-3.951-.615-5.449-2.077-1.996-1.948-3.99-3.91-5.838-5.997-1.369-1.546-2.415-3.38-3.789-4.923-.562-.632-1.585-1.084-2.44-1.163-.854-.078-1.363.664-.983 1.625.141.355.361.685.578 1.004 1.186 1.752 2.34 3.47 2.744 5.661.15.808 1.312 1.429 2.014 2.136l.492-.328c.029.633.061 1.266.082 1.737-1.1.714-2.1 1.381-3.117 2.021-1.387.874-2.844.631-4.346.326-1.049-.213-2.039-.09-1.965 1.432.008.171-.482.324-.652.553-1.002 1.344-2.241 2.342-3.86 2.86-.173.055-.243.431-.255.454-.915-1.167-1.863-2.289-2.704-3.484-.495-.705-.631-1.825-1.267-2.238-1.423-.925-3.039-1.572-4.622-2.221-.343-.141-1.03.049-1.296.333-.717.764-.142 3.774.67 4.495.319.283.7.996.567 1.208-.815 1.297-.755 2.204.812 2.774.207.075.311.433.676.98-1.812-.977-2.852-.184-3.896.866-.605.609-1.355 1.182-2.149 1.474-2.205.811-2.567 1.31-2.15 3.561.065.354.088.714.005 1.125-.649-1.776-1.381-3.531-3.279-4.16-.654-.216-1.727.081-2.292.536-.686.551-.612 1.435.166 2.146.591.541 1.059 1.216 1.672 1.938-1.378-.235-2.648-.479-3.928-.651-.288-.039-.733.071-.894.278-1.142 1.467-2.68.984-4.103.838-2.075-.213-3.13 1.098-2.347 3.041.967 2.399 1.637 2.75 4.148 2.303.412-.073.871.114 1.308.18l.053.612c-.604.147-1.244.502-1.803.402-1.453-.259-2.882-.676-4.297-1.105-1.93-.586-2.244-.422-2.635 1.573.49.43 1.057.789 1.435 1.291.641.852.931 2.096 2.513 1.3.281-.142 1.033.668 1.576 1.025 1.313.861 2.563 1.896 4.521 1.667l-.197-2.391c1.074-.443 2.315-.808 2.41-2.517.023-.419 1.352-.738 2.051-1.152 1.155-.684 2.286-1.407 3.806-2.348 1.125.821 2.63 2.367 5.023 2.183.001-1.502 2.352-2.927-.061-4.401l.446-1.816c.838-.249 1.711-.597 2.617-.74.497-.079 1.128.059 1.563.322 2.599 1.571 2.63 1.592 5.012-.102 1.402 1.3 1.436 1.755.254 3.11-1.131 1.297-2.089 2.188-4.2 1.269-1.075-.468-2.913.72-4.327 1.338-.094.041.474 1.6.866 2.884-1.856 2.552-4.9 4.548-8.389 5.95-.51.205-1.108.336-1.484.693-.438.416-1.07 1.257-.92 1.532.313.573 1.033 1.07 1.686 1.267.582.175 1.299-.098 1.956-.171.547-.062 1.156-.309 1.631-.151 3.533 1.175 5.171-1.484 7.332-3.353 2.142-1.851 4.519-3.455 6.91-4.982 1.401-.895 3.093-1.324 4.554-2.143 3.08-1.728 6.529-2.083 9.873-2.829.32-.071.782.075 1.054.283 1.295.992 4.352 1.134 5.523.028.761-.717 1.229-1.737 1.876-2.586.237-.312.604-.731.926-.743 1.961-.068 3.925-.034 5.693-.034-.259 1.48-.668 3.194-.828 4.932-.136 1.476.977 2.604 2.495 2.774 2.075.232 4.155.525 6.237.571.824.019 1.646-.613 2.5-.838.582-.154 1.215-.119 1.824-.167.927-.074 1.856-.124 2.779-.227.919-.104 1.828-.283 2.746-.39 1.357-.158 2.718-.279 4.076-.42.262-.027.652-.205.764-.094 1.719 1.72 3.891.705 5.256.079 3.104-1.423 6.645-2.092 9.133-4.852 2.075-2.302 4.569-4.221 6.731-6.452 1.827-1.884 3.406-4.005 5.162-5.96 1.546-1.722 3.124-3.425 4.798-5.021 2.297-2.189 4.646-4.331 7.078-6.366.934-.782 2.164-1.208 3.252-1.808.471-.26 1.131-.442 1.35-.85 1.052-1.952 3.094-2.672 4.67-3.961.29-.237.519-.548.807-.786.979-.806 1.873-1.793 2.979-2.352 2.772-1.401 5.317-3.097 7.733-5.039.717-.577 1.728-.812 2.63-1.131 2.206-.779 4.396-1.628 6.651-2.239 2.373-.643 4.797-1.133 7.225-1.522 3.303-.529 6.692-.64 9.925-1.424 2.247-.545 4.112-.551 6.099.642.752.452 1.811.421 2.738.546 1.549.208 2.709.854 3.936 1.965 1.859 1.685 4.453 1.895 6.967 1.968.998.029 1.975.506 2.98.633 1.426.18 2.895.446 4.297.274 1.758-.216 3.456-.898 5.207-1.243.439-.087.965.425 1.478.517 1.022.183 2.06.324 3.096.371.747.034 1.5-.139 2.252-.17.804-.033 1.611-.007 2.556-.007l.438 1.415c-.959.757-2.206 1.433-2.963 2.468-.402.55.045 1.722.127 2.88-1.311 1.073-2.558 4.163-2.115 5.075-.771.994-1.43 1.86-2.11 2.709a4.548 4.548 0 0 1-.761.758c-.979.757-1.517 1.557-.652 2.785.584.829.686 1.619-.578 2.047-.27.091-.447.622-.553.983-.121.417-.088 1.248-.167 1.253-2.034.143-1.877 2.241-2.938 3.187-.796.709-1.367 1.31-1.313 2.464.037.804-.252 1.623-.348 2.171-.905-.054-1.898-.389-2.645-.095-1.27.5-.954 1.778-.876 2.885.034.5-.003 1.324-.289 1.478-1.879 1.01-1.038 2.408-.663 3.746.18.637.422 1.256.668 1.975-3.77-.016-4.207.76-3.328 2.185-1.455.188-1.751 1.272-1.619 3.58.065 1.139.692 2.445-.871 3.168-1.305-.476-1.357-3.495-3.648-1.821-1.471 1.075.146 2.022.147 3.282-1.739.536-2.165 1.839-2.057 3.774.056.984-1.055 2.058-1.724 3.032-.099.144-.719.056-1.02-.087-1.633-.78-2.85-.179-2.854 1.625-.006 2.641-1.204 4.832-2.332 7.071-.146.293-.363.551-.568.854-1.209-.638-2.309-1.767-3.348-.387-.569.757-.824 1.769-1.149 2.69-.458 1.297-.851 2.617-1.257 3.88-.879-.545-1.63-1.293-1.938-1.142-.588.29-1.029 1.042-1.34 1.693-.444.928-.564 2.009-2.025 1.97-.409-.011-.945.559-1.235.988-.94 1.394-1.796 2.843-2.679 4.276-.509.827-.959.801-1.684.134-.423-.389-1.426-.727-1.756-.496-.475.331-.566 1.204-.84 1.837-.205.477-.459 1.354-.663 1.346-2.476-.098-2.851 2.089-3.819 3.511-1.042 1.529-2.352 2.809-4.053 3.133-2.602.497-3.708 2.411-5.049 4.233-.256.348-.887.785-1.174.686-2.17-.743-3.392.788-4.805 1.867-.824.629-1.557 1.414-2.452 1.909-2.278 1.26-4.649 2.354-6.928 3.613-.562.311-1.065.933-1.337 1.53-.903 1.989-2.434 2.465-4.424 2.853-2.873.559-5.951-.984-8.614.92-1.083.773-2.071 1.682-3.15 2.463-.4.289-.936.541-1.411.545-.92.008-1.84-.174-2.845-.287-1.175-1.971-2.58-1.986-4.614-.689-1.24.791-2.744 1.73-4.61.914-1.067-.467-2.394-.469-3.538.514-.603.52-1.594.605-2.426.832-.855.23-1.541.098-2.102-.768-.197-.307-1.172-.49-1.491-.277-2.122 1.408-4.292.547-6.44.273-1.194-.152-2.439.076-3.561-.807-.35-.272-1.457.162-2.068.525-2.05 1.217-4.897.664-6.255-1.32-.638-.932-1.511-.9-2.064.074-1.063 1.871-1.146 1.836-3.067.783-1.44-.789-2.939-1.607-4.695-.73-.283.141-.799.117-1.063-.055-1.292-.83-2.544-1.727-3.79-2.625-.191-.138-.329-.399-.412-.632-.477-1.324-1.088-1.434-2.209-.694-.971.64-2.12 1.008-3.348 1.566-.06-2.202-1.084-2.369-2.994-1.835-.721.201-2.111-.915-2.74-1.768-.64-.87-.836-2.135-1.018-3.26-.338-2.094-1.432-2.838-3.539-2.415-1.236.249-2.541.157-3.775.41-.541.111-1.184.598-1.436 1.091-.801 1.564-1.805 2.075-3.442 1.555-.811-.257-1.756-.276-2.429-.723-.579-.384-.951-1.185-1.229-1.875-.137-.34.285-.877.204-1.274-.105-.513-.459-.976-.707-1.46-.499.335-1.466.762-1.421.991.39 1.997-1.309 1.829-2.301 2.309-.601.291-1.326.324-2.055.486.013.017-.085-.057-.109-.151-.184-.703-.3-1.991-.536-2.013-.924-.085-2.059-.031-2.791.458-1.093.73-1.912.704-3.016.138-.887-.455-1.938-.583-2.911-.875-.406-.122-.982-.175-1.166-.462-1.078-1.684-2.548-1.387-4.329-.844v-4.847c1.741.857 2.033.299 2.138-1.247.151-2.214.78-4.396 1.223-6.588.04-.198.167-.414.32-.545.532-.458 1.421-.8 1.558-1.342.164-.646-.308-1.453-.556-2.385 1.224.191 2.143.234 2.595 1.696.325 1.051 1.251 2.507 2.119 2.671 1.644.311 2.611-1.388 3.222-2.641.773-1.584 1.006-3.43 1.503-5.154.104-.359.313-.702.533-1.01.659-.927 1.355-1.827 2.018-2.751.205-.285.366-.604.52-.921.366-.753.878-1.481 1.037-2.278.315-1.582.826-1.892 2.449-1.856.854.019 2.005-.368 2.517-.989.718-.871-.316-2.167-1.688-1.99-2.817.361-5.608.925-8.41 1.404-.249.042-.5.07-1.03.142.281-.523.601-.839.568-1.113-.078-.661-.158-1.445-.557-1.895-.23-.26-1.136-.099-1.648.101-3.434 1.333-6.854 2.571-10.662 1.934-1.172-.196-2.46-.276-3.589.01-1.286.326-2.208-.016-3.191-.689-1.451-.992-2.964-1.893-4.396-2.912-.604-.43-1.105-1.027-1.585-1.605-1.115-1.343-1.744-1.302-2.541.213-.101.192-.212.401-.375.533-.716.584-3.875.69-4.719.199-.473-.275-.986-.732-1.452-.699-.469.034-1.214.507-1.298.902-.543 2.566-1.167 3.186-3.767 3.053-1.139-.059-2.265-.38-3.469-.595v-2.557c.434-.912.831-1.641 1.128-2.408.234-.604.352-1.254.509-1.887.218-.875.198-1.575-.84-2.019-1.227-.525-1.329-1.662-.137-2.117 1.251-.479 1.423-1.407 1.375-2.348-.081-1.592.509-2.4 2.435-2.409-.085-1.625-.581-3.304-.144-4.689.562-1.783.575-4 2.572-5.143.411-.235.744-.646 1.042-1.031.64-.825.815-1.558-.411-2.08-.642-.273-1.204-.735-1.677-1.033l.382-2.275c.047 0 .486.009.925-.002.958-.024 1.479-.497 1.308-1.473-.277-1.589-.623-3.166-.881-4.455.907.708 1.932 1.587 3.048 2.331.333.222 1.002.217 1.361.024.24-.129.376-.829.262-1.176-.683-2.082-1.452-4.134-2.216-6.264l1.639-.797c.353.789.756 1.699 1.167 2.607.292.646.477 1.396.935 1.891.279.302.996.294 1.493.235.134-.016.262-.73.259-1.122-.009-1.086-.122-2.172-.132-3.258-.01-1.085-.587-1.531-1.579-1.779-2.027-.506-2.187-1.006-1.371-2.919.542-1.269.91-2.613 1.348-3.899 1.021.224 1.928.708 2.579.477.548-.196.919-1.184 1.161-1.892.926-2.707.799-3.027-1.305-3.956.956-.973 1.934-1.878 2.786-2.892.252-.299.265-.924.177-1.358-.186-.915-.351-1.52.838-2.072 1.192-.553.857-1.831.057-3.293 1.103-.144 2.022-.258 2.94-.385.619-.085 1.235-.188 1.853-.284-.134-.778-.12-1.627-.448-2.312-.279-.583-.954-.976-.924-1.458.404-.969.614-2.102 1.258-2.87.983-1.171 1.461-2.283.857-3.743-.017-.04.128-.174.219-.228 1.771-1.034 2.535-2.888 3.567-4.498.367-.573.568-1.465.416-2.11-.287-1.218-.372-1.992.866-2.911.943-.701 1.675-2.162 1.818-3.366.323-2.731 2.101-4.236 4-5.756.595-.477 1.245-.903 1.764-1.452 1.89-2 4.129-3.121 6.914-3.422 1.574-.17 3.069-.989 4.629-1.403.837-.222 1.778-.073 2.603-.322 2.909-.879 5.771-.949 8.71-.073.569.17 1.461-.377 2.062-.794.455-.316.688-.954 1.289-1.853.887.959 1.576 1.849 2.422 2.554.395.329 1.088.402 1.648.411 1.211.02 2.439-.227 3.629-.087 1.43.168 2.996.334 4.184 1.04 1.078.64 1.521.389 2.09-.434 2.101.921 4.166 1.751 6.154 2.735.84.416 1.621 1.062 2.25 1.766 1.694 1.895 3.399 1.271 5.201.191.928-.555 1.703-1.431 2.685-1.812 1.122-.437 1.493-1.238 1.637-2.218.085-.582.091-1.494-.247-1.743-.481-.355-1.369-.443-1.977-.271-.752.212-1.395.807-2.372 1.041l2.101-2.405c2.516.18 3.299-.363 2.984-2.292.834.264 1.654.633 2.508.743.383.049.832-.42 1.252-.655-.244-.396-.424-1.055-.747-1.136-.848-.214-1.763-.231-2.642-.176-.135-.009-.215.815-.318 1.263zm100.765 50.363l-6.189 1.975c1.785 2.182 2.933 2.484 5.355 1.327 1.521-.727.863-2.149.787-3.349.671-.001 1.358.075 2.002-.06.164-.034.189-.735.279-1.13l-2.176-.181c-.018.473-.038.946-.058 1.418zm-67.304 48.618c-.021-.002-.385-.152-.532-.033-1.097.885-2.133.792-3.314.114-.233-.134-.967.434-1.368.792-.75.67-1.31 1.637-2.156 2.1-2.211 1.211-2.246 1.125-1.355 3.393a3.1 3.1 0 0 1 .195 1.135c-.008 1.412.668 1.739 1.924 1.324 2.847-.941 3.576-.272 3.572 2.795-.001 1.056.454 2.902 1.006 3.025 1.883.423 2.855 2.164 2.737 3.147-.315 2.62 1.755 3.769 2.552 5.641 1.743 4.098 3.238 8.301 4.889 12.44.218.547.744.972 1.127 1.453.408-.458 1.112-.879 1.173-1.378.251-2.078.154-4.028-.983-6.038-1.443-2.553-2.279-5.446-3.423-8.174-.552-1.318-.948-2.833-1.873-3.836-1.622-1.76-1.819-3.822-2.046-5.964-.043-.418-.093-1.108-.318-1.192-1.631-.605-1.387-2.389-2.244-3.473-.237-.3-.043-1.232.274-1.589.263-.296 1.067-.364 1.509-.2 1.18.437 1.859 2.816 1.359 4.013-.182.433-.104 1.432-.02 1.447 1.024.179 2.104.389 3.095.199.314-.06.727-1.394.53-1.943-.338-.942-1.234-1.669-1.676-2.592-.315-.658-.477-1.538-.312-2.224.107-.451 1.043-1.121 1.387-1.01.688.222 1.42.802 1.78 1.436.661 1.163 1.013 2.497 1.59 3.714a84.786 84.786 0 0 0 2.677 5.214c.172.306.869.584 1.178.472.318-.116.652-.734.633-1.114a7.669 7.669 0 0 0-.508-2.409c-.391-.981-1.461-1.958-1.345-2.814.196-1.447-.47-2.298-1.159-3.274-.865-1.225-1.461-2.474-.267-4.016 1.482.104 3.058.247 4.636.294.25.008.743-.419.735-.63-.069-1.81.944-1.754 2.286-1.566.711.1 1.484-.249 2.229-.396-.194-.66-.434-1.312-.57-1.984-.117-.571-.385-1.428-.119-1.698.698-.708 1.637-1.19 2.507-1.717.924-.561 1.879-1.069 3.114-1.767-.703-.448-1.191-.662-1.553-1.01-.655-.629-3.018-2.231-3.71-2.261-1.093-.048-2.115.125-2.4 1.476-.076.361-.276.696-.481 1.19-1.359-1.345-2.771-1.211-4.301-.544-2.157.941-2.908 3.022-1.711 4.728.283.405.42 1.311.174 1.599-.367.429-1.131.69-1.736.712-1.806.065-3.1-1.171-4.564-1.982-.412-.229-1.105-.459-1.394-.27-.32.21-.417.895-.448 1.383-.064.979-.02 1.965-.02 2.82-.906-.215-1.524-.567-1.934-.401-.42.17-.632.846-1.028 1.443zm-14.159 11.332c.286.705.366 1.023.532 1.287.493.78 1.168 1.646 2.098.939.685-.519 1.363-1.518 1.394-2.327.06-1.592-.651-3.183.212-4.797.18-.337-.101-1.171-.439-1.484-.836-.772-1.759-1.526-2.779-2.005-1.021-.479-1.934.095-2.119 1.18-.414 2.447-1.154 3.209-3.713 3.426-1.015.085-1.758.394-2.035 1.562-.088.371-.861.608-1.351.845-.398.192-.892.223-1.239.469-.133.093-.046.834.059.864.429.122.902.082 1.359.103l1.474.071.131.75c-2.163-.967-3.506.073-4.657 1.773-1.383-1.654-1.32-4.407-4.016-4.091-.236-1.054-.399-1.921-.637-2.769-.092-.329-.357-.868-.529-.862-.391.014-.859.22-1.133.504-.332.344-.406.954-.756 1.261-.52.456-1.24 1.125-1.777 1.045-2.543-.381-4.481.837-6.285 1.939-.822-.542-1.65-1.535-2.354-1.453-1.202.141-1.585 1.146-.492 2.239h-1.494c-.114-.857-.246-1.661-.324-2.469-.127-1.319-1.118-1.735-2.162-1.921-.494-.089-1.431.136-1.537.439-.326.935-.914 1.203-1.758 1.138-.535-.041-1.059-.278-1.592-.302-1.449-.062-2.967.927-4.346-.308-.078-.07-.314.06-.478.059-1.188-.012-2.382-.1-3.565-.035-1.336.074-2.664.303-3.998.429-2.616.247-.914 2.183-1.128 3.238-.386 1.907.667 2.574 2.544 1.968 1.684-.544 3.178.373 3.431 2.104.165 1.121.753 1.502 1.868 1.174 1.279-.376 2.02-1.142 1.908-2.856.602.79 1.015 1.241 1.325 1.755.6.991 1.111 1.426 2.343.603 1.807-1.208 3.813-1.438 5.993-.641 1.616.591 3.394.745 5.233 1.121l.805 1.196c.963-.764 1.928-1.527 2.675-2.118 1.286-.218 2.499-.389 3.696-.634 1.965-.403 1.96-.423 1.656-2.73.467.886.627 1.426.977 1.778.322.325 1.048.749 1.255.612 2.27-1.497 4.68-.672 7.029-.738l-.3.434 1.66 2.172 1.652-2.453c1.209.135 2.618.548 3.957.382 2.037-.253.595-2.51 1.727-3.866zm75.038-50.388c-.373-.22-.789-.34-1.012-.617-.943-1.171-1.773-1.901-2.377.239-.035.123-.359.243-.543.234-1.729-.081-2.65 1.091-3.458 2.018.13.864.514 1.855.26 2.062-.579.471-1.461.713-2.238.763-1.06.068-2.153-.282-3.201-.165-.863.097-2.136.395-2.421.99-.564 1.179-.637 2.617-.777 3.962-.057.536.245 1.11.384 1.667l1.136-.461 2.072 1.843c-.389 1.007-1.086 2.058-1.063 3.094.01.465 1.456.899 2.194 1.316l1.848-4.922c2.121 1.033 2.316 1.594 1.422 3.338-.217.421-.257 1.189-.008 1.519.249.331 1.203.598 1.43.403 1.525-1.309 3.218-2.567 4.293-4.211.701-1.073.455-2.766.65-4.329h2.902l-2.315-4.523.245-.182 1.697 1.417c.659-1.887 1.281-3.536 1.791-5.218.125-.412.023-1.242-.213-1.348-.77-.346-1.648-.446-2.485-.641l-.213 1.752zM78.555 152.83c-1.789-2.677-.968-5.198-.398-7.795.339-1.544.192-3.21.114-4.814-.013-.278-.771-.521-1.185-.779-.266.442-.633.854-.773 1.332-.204.703-.02 1.921-.396 2.104-1.899.918-.992 2.048-.738 3.412.197 1.064-.375 2.366-.912 3.403-.123.238-1.524-.342-2.3-.247-1.012.124-2.233.284-2.909.916-.636.594.544 4.132 1.319 4.668 1.167.807 2.048.119 2.939-.601.237-.191.625-.194.941-.291l4.298-1.308zm-37.924-51.136c-.325.048-.568.021-.74.121-.6.346-1.394.612-1.692 1.145-.236.422-.049 1.52.301 1.728.518.308 1.346.099 2.042.101.472.001.956.05 1.412-.038.577-.111 1.401-.173 1.639-.554.457-.735.577-1.681.918-2.809l2.266-1.146.101-.595-3.84-1.247c-.368 1.529-1.823 1.414-3.025 1.792l.618 1.502zm106.723-72.111c-.455.481-.84.738-1.015 1.097-.688 1.418-.311 2.601.463 4 1.284 2.323 2.097 4.904 3.171 7.349.27.61.713 1.194 1.217 1.625.178.151 1.092-.134 1.125-.317.102-.571.07-1.238-.141-1.778-.724-1.863-1.613-3.663-2.311-5.534-.626-1.681-1.058-3.433-1.632-5.134-.141-.42-.502-.764-.877-1.308zM72.467 146.318c-.861-.72-1.572-1.384-2.361-1.937-.25-.176-.89-.217-1.041-.046a103.458 103.458 0 0 0-3.72 4.509c-.177.226-.238.683-.136.951.133.352.438.809.748.881.41.096 1.243-.047 1.293-.244.296-1.137 1.198-1.409 2.074-1.882 1.08-.582 2.022-1.419 3.143-2.232zm-25.135-15.143c.173-.08.81-.185 1.057-.552.185-.275-.056-.922-.244-1.342-.312-.699-.754-1.338-1.105-2.021-.537-1.04-2.612-1.892-3.572-1.321-.366.218-.731.866-.687 1.273.252 2.291 1.935 3.817 4.551 3.963zm145.805-29.281l.381-.186c-.459-.761-.885-1.545-1.406-2.26-.092-.125-.819-.026-.848.08-.226.824-.296 1.69-.523 2.514-.255.928-.62 1.825-.945 2.732-.213.592-.498 1.167-.623 1.775-.031.153.53.628.644.575.498-.231.948-.582 1.386-.926.51-.399.935-.939 1.493-1.235.899-.477 1.249-1.019.733-1.987-.172-.321-.198-.72-.292-1.082zM162.09 30.306c-1.27-1.875-2.392-3.569-3.588-5.21-.082-.113-.951.076-1.039.292-.176.438-.268 1.297-.041 1.444 1.354.888 1.326 2.264 1.653 3.593.146.59 1.015 1.136 1.675 1.383.208.078.805-.881 1.34-1.502zM65.33 162.812c-.358 1.36-.768 2.771-1.072 4.204-.052.248.469.87.519.849.963-.421 2.735-1.012 2.692-1.373-.206-1.743-.867-3.441-1.477-5.114-.062-.171-.867-.113-1.319-.075-.138.011-.252.312-.433.551l1.09.958zm-6.455.453c.088.498.183 1.323.398 2.116.082.301.401.655.689.746.224.072.819-.23.817-.356-.035-1.503-.078-3.018-.343-4.489-.03-.167-1.47-.255-2.171-.066-.477.128-.805.804-1.2 1.235l1.81.814zm23.608-21.628c-.123-.544-.139-.833-.254-1.073-.289-.611-.623-1.201-.939-1.799-.792.446-1.654.813-2.314 1.407-.123.111.557 1.126.879 1.717.077.142.188.286.32.37.408.257 1.027.787 1.215.667.493-.318.805-.922 1.093-1.289zm93.148-29.929l-2.141-1.552c-.678.977-1.396 1.929-1.978 2.96-.071.125.835 1.019.907.972 1.005-.652 1.943-1.407 3.212-2.38zm-38.949-82.692c-.66.747-1.492 1.357-1.393 1.642.23.657.893 1.588 1.414 1.609.625.026 1.285-.776 1.93-1.22l-1.951-2.031zm5.177 126.136c-.765-.508-1.255-1.071-1.788-1.115-.441-.036-.932.541-1.4.846l1.717 2.465 1.471-2.196zm-54.426-5.25c-.878-.761-1.313-1.139-1.751-1.517-.542.632-1.123 1.24-1.567 1.935-.044.069.82 1.019 1.114.947.648-.159 1.202-.707 2.204-1.365zm88.868-33.323l1.896-1.301c-.404-.435-.966-1.304-1.186-1.226-.742.267-1.364.871-2.031 1.346l1.321 1.181zm41.516-61.281c.598-.778 1.289-1.316 1.199-1.64-.15-.547-.868-1.39-1.215-1.331-.568.096-1.029.816-1.535 1.273.416.457.832.912 1.551 1.698zM87.255 145.857c-.681-.586-1.104-.95-1.526-1.315-.336.398-.974.825-.939 1.189.056.602.544 1.164.85 1.742l1.615-1.616zm36.747-9.647l-1.68 1.52c.531.349 1.051.945 1.596.969.447.02.924-.641 1.387-1l-1.303-1.489zM38.798 83.066c-.474.529-1.025 1.025-.972 1.102.472.678 1.05 1.281 1.597 1.907.345-.364 1.046-.934.975-1.057-.381-.658-.955-1.206-1.6-1.952zm49.992 88.253c-.369.69-.778 1.168-.68 1.324.425.671.999 1.247 1.52 1.857.312-.31.939-.81.885-.901-.422-.704-.975-1.328-1.725-2.28zm90.767-56.521c.527-.635 1.118-1.029 1.164-1.478.067-.651-.203-1.367-.479-1.989-.045-.098-.875.152-1.176.21l.491 3.257zm6.244-10.593l-1.612 1.884c.356.282.889.874 1.036.79a4.504 4.504 0 0 0 1.436-1.35c.089-.131-.426-.677-.86-1.324zM47.497 80.758c-.65-.514-1.03-.962-1.503-1.111-.172-.054-.85.653-.801.924.088.49.549.913.854 1.364.387-.315.774-.63 1.45-1.177zm82.957-58.665l-1.23-.958c-.274.418-.654.809-.773 1.268-.051.198.577.807.658.765.421-.218.765-.584 1.345-1.075zM41.887 77.886c-.725-.442-1.139-.865-1.586-.903-.266-.023-.584.559-.878.869.409.293.786.712 1.24.831.245.063.623-.387 1.224-.797zm40.889-1.725l-.348-.696c-.4-.38-.777-.794-1.23-1.097-.055-.037-.783.714-.737.779.341.49.743.986 1.243 1.293.217.133.707-.173 1.072-.279zm69.911-48.6c-.491.705-.901 1.084-1.01 1.536-.055.226.569.875.662.833.438-.197.978-.5 1.13-.898.102-.27-.381-.761-.782-1.471zm65.477 110.076c-.402.804-.743 1.194-.749 1.589-.005.318.396.642.616.964.306-.386.734-.734.87-1.173.076-.25-.326-.648-.737-1.38zm-114.828 16.398l1.168-1.803c-.283-.183-.697-.586-.827-.509a4.585 4.585 0 0 0-1.263 1.15c-.055.072.444.569.922 1.162zm91.788-46.577c-.788-.402-1.184-.759-1.575-.754-.292.004-.578.475-.866.738.316.31.605.826.956.871.338.043.738-.398 1.485-.855zM76.778 169.053l.314-.621c-.34-.129-.74-.438-1.007-.347-.442.149-.857.509-1.147.886-.068.088.515.897.621.861.443-.153.818-.502 1.219-.779zm87.027-36.157l-1.086.95c.425.343.819.746 1.295.989.121.062.756-.505.72-.585-.196-.435-.53-.808-.929-1.354zm-119.9-14.886l.009-.976-1.989-.203c.027.346-.008.97.091.992.613.139 1.256.14 1.889.187zm105.359-57.154l-.668-.416-1.043 1.2 1.02.85.691-1.634zm23.211-24.874c-.588-.417-1.109-.906-1.203-.834a2.975 2.975 0 0 0-.885 1.174c-.051.123.529.714.641.667.442-.187.814-.542 1.447-1.007zm1.833 84.006c.495-.599.943-.912.993-1.279.037-.268-.45-.608-.704-.916-.347.318-.804.583-.989.977-.089.189.34.621.7 1.218zm71.011-35.877c-.456.582-.954 1.033-.882 1.159.243.428.672.764 1.083 1.062.04.029.671-.491.631-.663-.107-.451-.432-.852-.832-1.558zm-31.154-29.022l-.975-1.068c-.377.365-.807.694-1.09 1.121-.065.099.441.792.556.76.452-.129.853-.437 1.509-.813z"/>
  <path fill="#FF326A" d="M136.115 86.577c-1.235 1.146-1.595 1.058-2.247-.346-.373-.802-1.097-1.441-1.462-2.245-.438-.966-.663-2.028-1.004-3.126.999-.484 1.661-.386 2.119.801.38.987 1.087 1.764.854 3.034-.087.481 1.066 1.189 1.74 1.882zm23.729-7.708c-.809.688-1.523 1.689-2.453 1.962-.744.218-1.748-.451-2.629-1.086l4.672-1.612.41.736z"/>
  <path fill="#FFF" d="M115.237 29.845c.104-.447.184-1.271.314-1.28.879-.055 1.794-.038 2.642.176.323.082.503.741.747 1.136-.42.235-.869.705-1.252.655-.854-.11-1.674-.479-2.508-.743l.057.056z"/>
  <path fill="#FF326A" d="M121.761 88.961c-.32 2.278-1.566.785-2.323 1.207.121-2.017 1.432-.605 2.323-1.207z"/>
  <path fill="#FFF" d="M148.698 128.826c.396-.597.608-1.273 1.025-1.442.409-.166 1.027.187 1.934.401 0-.855-.045-1.841.02-2.82.031-.489.128-1.173.448-1.383.288-.19.981.041 1.394.27 1.465.811 2.759 2.047 4.564 1.982.605-.021 1.369-.283 1.736-.712.246-.289.109-1.194-.174-1.599-1.197-1.705-.446-3.786 1.711-4.728 1.529-.667 2.941-.801 4.301.544.205-.494.405-.83.481-1.19.285-1.352 1.308-1.524 2.4-1.476.692.03 3.055 1.632 3.71 2.261.361.348.85.562 1.553 1.01-1.235.698-2.19 1.207-3.114 1.767-.87.527-1.809 1.009-2.507 1.717-.266.271.002 1.127.119 1.698.137.672.376 1.324.57 1.984-.744.146-1.518.495-2.229.396-1.342-.188-2.355-.244-2.286 1.566.008.211-.485.638-.735.63-1.578-.048-3.153-.19-4.636-.294-1.194 1.542-.599 2.791.267 4.016.689.977 1.355 1.827 1.159 3.274-.116.857.954 1.833 1.345 2.814.301.755.466 1.597.508 2.409.02.38-.314.998-.633 1.114-.309.112-1.006-.166-1.178-.472a85.363 85.363 0 0 1-2.677-5.214c-.577-1.217-.929-2.551-1.59-3.714-.36-.634-1.093-1.213-1.78-1.436-.344-.111-1.279.56-1.387 1.01-.164.687-.003 1.566.312 2.224.441.923 1.338 1.65 1.676 2.592.196.549-.216 1.883-.53 1.943-.991.189-2.07-.021-3.095-.199-.085-.015-.162-1.014.02-1.447.5-1.196-.18-3.576-1.359-4.013-.441-.164-1.246-.096-1.509.2-.317.357-.512 1.29-.274 1.589.857 1.084.613 2.868 2.244 3.473.226.084.275.773.318 1.192.227 2.144.424 4.205 2.046 5.964.925 1.003 1.321 2.518 1.873 3.836 1.144 2.728 1.979 5.622 3.423 8.174 1.138 2.01 1.234 3.96.983 6.038-.061.499-.765.92-1.173 1.378-.383-.481-.909-.906-1.127-1.453-1.65-4.139-3.146-8.342-4.889-12.44-.797-1.872-2.867-3.021-2.552-5.641.118-.983-.854-2.724-2.737-3.147-.552-.124-1.007-1.97-1.006-3.025.004-3.068-.726-3.736-3.572-2.795-1.256.415-1.932.088-1.924-1.324a3.124 3.124 0 0 0-.195-1.135c-.891-2.268-.855-2.182 1.355-3.393.847-.463 1.406-1.43 2.156-2.1.401-.358 1.135-.926 1.368-.792 1.182.679 2.218.771 3.314-.114.15-.12.513.03.535.032zm-14.159 11.332c-1.132 1.356.311 3.613-1.728 3.866-1.339.166-2.748-.247-3.957-.382l-1.652 2.453-1.66-2.172c.1-.145.199-.29.3-.434-2.35.066-4.76-.758-7.029.738-.207.137-.933-.288-1.255-.612-.35-.352-.51-.892-.977-1.778.304 2.307.309 2.327-1.656 2.73-1.197.245-2.41.417-3.696.634-.747.591-1.712 1.354-2.675 2.118l-.805-1.196c-1.84-.376-3.617-.529-5.233-1.121-2.18-.798-4.187-.567-5.993.641-1.231.823-1.743.388-2.343-.603-.311-.514-.724-.965-1.325-1.755.111 1.714-.629 2.48-1.908 2.856-1.115.328-1.703-.053-1.868-1.174-.253-1.732-1.747-2.648-3.431-2.104-1.877.605-2.93-.062-2.544-1.968.214-1.055-1.488-2.991 1.128-3.238 1.334-.126 2.662-.355 3.998-.429 1.184-.065 2.377.023 3.565.035.163.001.399-.128.478-.059 1.379 1.234 2.896.244 4.346.308.533.023 1.057.261 1.592.302.844.064 1.432-.204 1.758-1.138.106-.303 1.043-.528 1.537-.439 1.044.187 2.035.602 2.162 1.921.078.808.21 1.612.324 2.469h1.494c-1.093-1.093-.71-2.098.492-2.239.703-.082 1.531.91 2.354 1.453 1.804-1.103 3.742-2.321 6.285-1.939.537.081 1.258-.589 1.777-1.045.35-.307.424-.917.756-1.261a1.79 1.79 0 0 1 1.133-.504c.172-.006.438.533.529.862.237.847.4 1.715.637 2.769 2.695-.316 2.633 2.437 4.016 4.091 1.151-1.7 2.494-2.74 4.657-1.773l-.131-.75-1.474-.071c-.457-.021-.931.02-1.359-.103-.104-.03-.191-.771-.059-.864.348-.247.841-.277 1.239-.469.489-.236 1.263-.474 1.351-.845.277-1.167 1.021-1.476 2.035-1.562 2.559-.217 3.299-.979 3.713-3.426.186-1.085 1.098-1.66 2.119-1.18 1.021.479 1.943 1.232 2.779 2.005.339.313.619 1.147.439 1.484-.863 1.614-.152 3.206-.212 4.797-.03.81-.709 1.808-1.394 2.327-.93.707-1.604-.159-2.098-.938-.165-.265-.245-.584-.531-1.288zm75.038-50.388l.212-1.75c.837.194 1.716.294 2.485.641.236.106.338.937.213 1.348-.51 1.682-1.132 3.331-1.791 5.218l-1.697-1.417-.245.182 2.315 4.523h-2.902c-.195 1.562.051 3.256-.65 4.329-1.075 1.644-2.768 2.902-4.293 4.211-.227.194-1.181-.072-1.43-.403-.249-.33-.209-1.098.008-1.519.895-1.744.699-2.305-1.422-3.338l-1.848 4.922c-.738-.417-2.185-.852-2.194-1.316-.022-1.036.675-2.087 1.063-3.094l-2.072-1.843-1.136.461c-.139-.557-.44-1.13-.384-1.667.141-1.345.213-2.783.777-3.962.285-.595 1.558-.893 2.421-.99 1.048-.117 2.142.233 3.201.165.777-.05 1.659-.292 2.238-.763.254-.207-.13-1.197-.26-2.062.808-.926 1.729-2.098 3.458-2.018.184.009.508-.111.543-.234.604-2.14 1.434-1.41 2.377-.239.224.274.64.395 1.013.615zm-3.151 10.743l.045-.309-1.982-4.27-1.17 1.484 3.107 3.095zM78.555 152.83c-1.673.509-2.986.909-4.299 1.307-.317.096-.705.099-.941.291-.891.719-1.772 1.408-2.939.601-.775-.537-1.955-4.075-1.319-4.668.676-.632 1.897-.792 2.909-.916.776-.095 2.177.485 2.3.247.537-1.038 1.109-2.339.912-3.403-.254-1.364-1.161-2.493.738-3.412.377-.182.192-1.401.396-2.104.141-.479.508-.89.773-1.332.414.259 1.172.501 1.185.779.078 1.604.225 3.271-.114 4.814-.569 2.598-1.39 5.119.399 7.796zm-37.924-51.136l-.619-1.501c1.202-.378 2.657-.264 3.025-1.792l3.84 1.247-.101.595-2.266 1.146c-.341 1.127-.461 2.073-.918 2.809-.237.381-1.062.443-1.639.554-.456.088-.94.039-1.412.038-.696-.002-1.524.207-2.042-.101-.35-.208-.537-1.306-.301-1.728.298-.533 1.092-.799 1.692-1.145.172-.101.416-.074.741-.122zm106.723-72.111c.375.544.736.888.878 1.306.574 1.702 1.006 3.454 1.632 5.134.697 1.872 1.587 3.671 2.311 5.534.211.54.242 1.207.141 1.778-.033.183-.947.468-1.125.317a4.719 4.719 0 0 1-1.217-1.625c-1.074-2.444-1.887-5.026-3.171-7.349-.773-1.399-1.151-2.582-.463-4 .174-.358.559-.615 1.014-1.095z"/>
  <path fill="#FFF" d="M72.467 146.318c-1.121.813-2.063 1.65-3.143 2.233-.876.473-1.778.745-2.074 1.882-.051.196-.884.339-1.293.244-.31-.072-.615-.53-.748-.881-.102-.268-.041-.725.136-.951a104.927 104.927 0 0 1 3.72-4.509c.15-.171.79-.129 1.041.046.789.552 1.5 1.216 2.361 1.936zm-25.135-15.143c-2.616-.146-4.299-1.671-4.551-3.963-.044-.407.321-1.055.687-1.273.96-.571 3.036.281 3.572 1.321.352.683.793 1.322 1.105 2.021.188.42.429 1.067.244 1.342-.247.367-.884.472-1.057.552zm145.805-29.281c.094.363.12.761.291 1.083.516.968.166 1.51-.733 1.987-.559.296-.983.835-1.493 1.235-.438.344-.888.694-1.386.926-.113.053-.675-.422-.644-.575.125-.608.41-1.184.623-1.775.325-.908.69-1.805.945-2.732.228-.823.298-1.69.523-2.514.028-.106.756-.205.848-.08.521.715.947 1.499 1.406 2.26l-.38.185zM162.09 30.306c-.535.621-1.132 1.58-1.34 1.502-.66-.248-1.529-.793-1.675-1.383-.327-1.329-.299-2.705-1.653-3.593-.227-.147-.135-1.007.041-1.444.088-.216.957-.406 1.039-.292 1.197 1.64 2.319 3.335 3.588 5.21zm53.866 49.854c.076 1.201.734 2.624-.787 3.35-2.423 1.157-3.57.854-5.355-1.327l6.189-1.975-.047-.048zM65.33 162.812l-1.09-.958c.18-.241.294-.54.433-.551.453-.038 1.257-.096 1.319.075.61 1.673 1.271 3.371 1.477 5.114.043.361-1.729.952-2.692 1.373-.05.021-.571-.601-.519-.849.304-1.433.714-2.845 1.072-4.204zm-6.455.453l-1.81-.815c.395-.431.723-1.107 1.2-1.235.702-.189 2.141-.101 2.171.066.265 1.471.308 2.986.343 4.489.002.126-.593.428-.817.356-.288-.091-.607-.445-.689-.746-.216-.792-.311-1.618-.398-2.115zm23.608-21.628c-.288.367-.6.972-1.094 1.289-.188.121-.807-.409-1.215-.667a1.016 1.016 0 0 1-.32-.37c-.322-.59-1.002-1.605-.879-1.717.66-.594 1.522-.961 2.314-1.407.316.598.65 1.188.939 1.799.116.24.132.528.255 1.073zm93.148-29.929c-1.27.974-2.207 1.729-3.211 2.381-.072.047-.979-.847-.907-.972.581-1.031 1.3-1.984 1.978-2.96.586.423 1.172.847 2.14 1.551zm-38.949-82.692l1.951 2.032c-.645.443-1.305 1.246-1.93 1.22-.521-.021-1.184-.952-1.414-1.609-.099-.286.733-.896 1.393-1.643zm5.177 126.136l-1.472 2.196-1.717-2.465c.469-.306.959-.882 1.4-.846.534.045 1.024.608 1.789 1.115zm-54.426-5.25c-1.002.658-1.556 1.207-2.204 1.365-.294.071-1.158-.878-1.114-.947.444-.695 1.025-1.302 1.567-1.935.438.378.873.756 1.751 1.517zm88.868-33.323l-1.32-1.181c.667-.475 1.289-1.079 2.031-1.346.22-.079.781.791 1.186 1.226l-1.897 1.301zm41.516-61.281l-1.551-1.697c.506-.457.967-1.177 1.535-1.273.347-.059 1.064.783 1.215 1.331.09.323-.601.862-1.199 1.639zM87.255 145.857l-1.616 1.616c-.306-.578-.794-1.14-.85-1.742-.034-.364.604-.791.939-1.189l1.527 1.315zm36.747-9.647l1.303 1.488c-.463.359-.939 1.021-1.387 1-.545-.024-1.064-.621-1.596-.969.471-.424.941-.85 1.68-1.519zM38.798 83.066c.646.746 1.219 1.293 1.601 1.952.071.123-.63.693-.975 1.057-.547-.626-1.125-1.229-1.597-1.907-.054-.076.497-.573.971-1.102zm49.992 88.253c.75.951 1.304 1.576 1.725 2.279.055.091-.573.591-.885.901-.521-.61-1.095-1.186-1.52-1.857-.099-.154.31-.632.68-1.323zm90.767-56.521l-.49-3.256c.301-.058 1.131-.309 1.176-.21.275.622.546 1.338.479 1.989-.047.449-.638.842-1.165 1.477zm6.244-10.593c.434.647.949 1.193.859 1.324a4.495 4.495 0 0 1-1.436 1.35c-.147.084-.68-.508-1.036-.79.467-.545.934-1.089 1.613-1.884z"/>
  <path fill="#FFF" d="M216.002 80.208l.059-1.417 2.176.181c-.09.395-.115 1.096-.279 1.13-.644.134-1.331.058-2.002.059l.046.047zm-168.505.55l-1.451 1.177c-.305-.451-.766-.874-.854-1.364-.048-.271.629-.978.801-.924.474.149.853.597 1.504 1.111zm82.957-58.665c-.58.491-.924.857-1.346 1.074-.081.042-.709-.567-.658-.765.119-.458.499-.85.773-1.268l1.231.959zM41.887 77.886c-.601.411-.979.86-1.224.796-.455-.119-.831-.537-1.24-.831.294-.31.612-.892.878-.869.447.039.861.462 1.586.904zm40.889-1.725c-.365.106-.854.413-1.072.279-.5-.307-.902-.803-1.243-1.293-.046-.064.683-.816.737-.779.453.302.83.716 1.23 1.097l.348.696zm69.911-48.6c.401.71.884 1.201.782 1.471-.152.398-.691.701-1.13.898-.093.042-.717-.607-.662-.833.109-.452.519-.831 1.01-1.536zm65.477 110.076c.411.731.813 1.129.737 1.38-.136.439-.564.787-.87 1.173-.221-.322-.621-.646-.616-.964.005-.395.346-.785.749-1.589zm-114.828 16.398c-.479-.593-.978-1.09-.922-1.162a4.571 4.571 0 0 1 1.263-1.15c.13-.077.544.326.827.509l-1.168 1.803zm91.788-46.577c-.746.456-1.146.898-1.485.855-.351-.045-.64-.562-.956-.871.288-.263.574-.734.866-.738.391-.004.786.352 1.575.754zM76.778 169.053c-.4.277-.775.626-1.219.779-.106.037-.689-.773-.621-.861.29-.376.705-.736 1.147-.886.267-.09.667.218 1.007.347l-.314.621zm87.027-36.157c.398.546.732.918.929 1.353.036.081-.599.647-.72.585-.476-.243-.87-.646-1.295-.989.3-.26.599-.522 1.086-.949zm-119.9-14.886c-.633-.047-1.276-.048-1.889-.186-.1-.022-.064-.646-.091-.992l1.989.203-.009.975zm105.359-57.154l-.691 1.634-1.02-.85 1.043-1.2.668.416zm23.211-24.874c-.633.465-1.005.82-1.447 1.006-.111.047-.691-.544-.641-.667.188-.446.504-.881.885-1.174.094-.071.615.417 1.203.835zm1.833 84.006c-.36-.598-.789-1.029-.7-1.218.186-.394.643-.659.989-.977.254.308.741.648.704.916-.05.368-.498.68-.993 1.279zm71.011-35.877c.4.706.726 1.106.832 1.559.04.172-.591.692-.631.663-.411-.299-.84-.634-1.083-1.062-.072-.127.426-.578.882-1.16zm-31.154-29.022c-.655.376-1.057.685-1.509.812-.114.033-.621-.661-.556-.76.283-.427.713-.756 1.09-1.121l.975 1.069z"/>
  <path fill="#FF326A" d="M206.426 100.513l-3.107-3.094 1.17-1.484 1.982 4.27-.045.308z"/>
</svg>
