<svg xmlns="http://www.w3.org/2000/svg" viewBox="0 0 1917 1184">
	<rect fill="#742984" x="0" y="990" width="1917" height="195"/>
    <rect fill="#3e5fac" x="1" y="792" width="1916" height="198"/>
    <rect fill="#0d803f" x="1" y="595" width="1916" height="197"/>
    <rect fill="#f8ee13" x="1" y="398" width="1916" height="197"/>
    <rect fill="#f68e1f" x="1" y="200" width="1916" height="198"/>
    <polygon points="1917,0 1917,200 1,200" style="fill:#e51e25" />
    
    <polygon points="0,1184 4,1185 1917,5 1917,0 1533,0 0,945" style="fill:#060709" />
    <polygon points="0,945 1533,0 1150,0 0,709" style="fill:#674017" />
    <polygon points="0,709 1150,0 757,0 0,466" style="fill:#60cdf6" />
    <polygon points="0,466 757,0 365,0 0,225" style="fill:#f6aab7" />
    <polygon points="0,225 365,0 0,0" style="fill:#ffffff" />
</svg>