<?xml version="1.0" encoding="UTF-8"?>
<svg viewBox="1235.27 533.84 1055.03 671.96" xmlns="http://www.w3.org/2000/svg">
    <defs>
        <clipPath id="cut-rectangle">
            <rect x="1235.27" y="533.84" width="1055.03" height="671.96"/>
        </clipPath>
    </defs>
    <g clip-path="url(#cut-rectangle)">
        <path d="m2290.3 645.27h-1056.9v-111.43h1056.9v111.43" fill="#ee2824"/>
        <path d="m2290.3 757.9h-1056.9v-112.62h1056.9v112.62" fill="#f46d1d"/>
        <path d="m2290.3 870.52h-1056.9v-112.62h1056.9v112.62" fill="#f5f011"/>
        <path d="m2290.3 983.14h-1056.9v-112.62h1056.9v112.62" fill="#52bf37"/>
        <path d="m2290.3 1095.8h-1056.9v-112.63h1056.9v112.62" fill="#2851a9"/>
        <path d="m2290.3 1205.8h-1056.9v-110.07h1056.9v110.07" fill="#9c158f"/>
        <path d="M 870.824 0 L 0 870.824 l 870.519 870.523 870.828-870.828 L 870.824 0" fill="#100f0d"/>
        <path d="m1656.9 870.52l-786.31-786.31-786.4 786.4 786.31 786.31 786.4-786.4" fill="#5a3219"/>
        <path d="m1572.5 870.52l-701.43-701.43-701.98 701.97 701.43 701.43 701.97-701.97" fill="#88c4ed"/>
        <path d="m1488.1 870.52l-617.88-617.88-617.55 617.55 617.88 617.88 617.55-617.55" fill="#f57dc5"/>
        <path d="m1403.6 870.52l-533-533-533.13 533.12 533 533 533.12-533.12" fill="#fff"/>
    </g>
</svg>
