<?xml version="1.0" standalone="no"?>
<svg xmlns="http://www.w3.org/2000/svg" viewBox="0 0 600 360">
  <path fill="#69f369" d="M0 0h600v360H0z"/>
  <path d="M176.57 36v54.855h22V74.43L215 90.855l-16.43 16.43 16.43 16.43 16.43-16.43 5.425 5.43a80.58 80.58 0 0 0-11.714 79.242 80.576 80.576 0 0 0 62.43 50.188l.144 28.425h-31.57v24.575h31.57V324h24.57v-28.855h31.57V270.57h-31.57V242a80.702 80.702 0 0 0 62.29-50.145 80.71 80.71 0 0 0-11.43-79.14L401.43 74.43V110h22V36h-74v22H385l-38.715 38.715c-27.723-19.668-64.848-19.668-92.57 0l-5.86-5.86 16.43-16.425L247.855 58 231.43 74.43 215 58h16.43V36zM300 104.57c31.836 0 57.645 25.809 57.645 57.645 0 31.836-25.81 57.64-57.645 57.64-31.836 0-57.645-25.804-57.645-57.64 0-31.836 25.81-57.645 57.645-57.645zm0 0"/>
</svg>
